<mxfile host="Electron" modified="2025-02-19T16:43:41.598Z" agent="Mozilla/5.0 (X11; Linux x86_64) AppleWebKit/537.36 (KHTML, like Gecko) draw.io/21.6.8 Chrome/114.0.5735.289 Electron/25.5.0 Safari/537.36" etag="nzArVIeBNJjphrxx42Rj" version="21.6.8" type="device">
  <diagram name="Page-1" id="5Dfg2nVc2cl_1TlpfVth">
    <mxGraphModel dx="691" dy="413" grid="1" gridSize="10" guides="1" tooltips="1" connect="1" arrows="1" fold="1" page="1" pageScale="1" pageWidth="850" pageHeight="1100" math="0" shadow="0">
      <root>
        <mxCell id="0" />
        <mxCell id="1" parent="0" />
        <mxCell id="Puvfrj2y3iIm_lqFW4YS-1" value="" style="endArrow=classic;html=1;rounded=0;" edge="1" parent="1">
          <mxGeometry width="50" height="50" relative="1" as="geometry">
            <mxPoint x="200" y="560" as="sourcePoint" />
            <mxPoint x="200" y="320" as="targetPoint" />
          </mxGeometry>
        </mxCell>
        <mxCell id="Puvfrj2y3iIm_lqFW4YS-2" value="" style="endArrow=classic;html=1;rounded=0;" edge="1" parent="1">
          <mxGeometry width="50" height="50" relative="1" as="geometry">
            <mxPoint x="200" y="440" as="sourcePoint" />
            <mxPoint x="690" y="440" as="targetPoint" />
          </mxGeometry>
        </mxCell>
        <mxCell id="Puvfrj2y3iIm_lqFW4YS-3" value="time" style="text;html=1;strokeColor=none;fillColor=none;align=center;verticalAlign=middle;whiteSpace=wrap;rounded=0;" vertex="1" parent="1">
          <mxGeometry x="650" y="450" width="60" height="30" as="geometry" />
        </mxCell>
        <mxCell id="Puvfrj2y3iIm_lqFW4YS-4" value="amplitude" style="text;html=1;strokeColor=none;fillColor=none;align=center;verticalAlign=middle;whiteSpace=wrap;rounded=0;" vertex="1" parent="1">
          <mxGeometry x="130" y="320" width="60" height="30" as="geometry" />
        </mxCell>
        <mxCell id="Puvfrj2y3iIm_lqFW4YS-5" value="2" style="text;html=1;strokeColor=none;fillColor=none;align=center;verticalAlign=middle;whiteSpace=wrap;rounded=0;fontSize=8;" vertex="1" parent="1">
          <mxGeometry x="160" y="350" width="60" height="30" as="geometry" />
        </mxCell>
        <mxCell id="Puvfrj2y3iIm_lqFW4YS-7" value="1" style="text;html=1;strokeColor=none;fillColor=none;align=center;verticalAlign=middle;whiteSpace=wrap;rounded=0;fontSize=8;" vertex="1" parent="1">
          <mxGeometry x="160" y="390" width="60" height="30" as="geometry" />
        </mxCell>
        <mxCell id="Puvfrj2y3iIm_lqFW4YS-8" value="0" style="text;html=1;strokeColor=none;fillColor=none;align=center;verticalAlign=middle;whiteSpace=wrap;rounded=0;fontSize=8;" vertex="1" parent="1">
          <mxGeometry x="160" y="430" width="60" height="30" as="geometry" />
        </mxCell>
        <mxCell id="Puvfrj2y3iIm_lqFW4YS-9" value="-1" style="text;html=1;strokeColor=none;fillColor=none;align=center;verticalAlign=middle;whiteSpace=wrap;rounded=0;fontSize=8;" vertex="1" parent="1">
          <mxGeometry x="160" y="470" width="60" height="30" as="geometry" />
        </mxCell>
        <mxCell id="Puvfrj2y3iIm_lqFW4YS-10" value="-2" style="text;html=1;strokeColor=none;fillColor=none;align=center;verticalAlign=middle;whiteSpace=wrap;rounded=0;fontSize=8;" vertex="1" parent="1">
          <mxGeometry x="160" y="510" width="60" height="30" as="geometry" />
        </mxCell>
        <mxCell id="Puvfrj2y3iIm_lqFW4YS-11" value="" style="endArrow=none;html=1;rounded=0;fontColor=#FF0000;fillColor=#f8cecc;strokeColor=#b85450;strokeWidth=2;" edge="1" parent="1">
          <mxGeometry width="50" height="50" relative="1" as="geometry">
            <mxPoint x="200" y="480" as="sourcePoint" />
            <mxPoint x="210" y="480" as="targetPoint" />
          </mxGeometry>
        </mxCell>
        <mxCell id="Puvfrj2y3iIm_lqFW4YS-12" value="" style="endArrow=none;html=1;rounded=0;fontColor=#FF0000;fillColor=#f8cecc;strokeColor=#b85450;strokeWidth=2;" edge="1" parent="1">
          <mxGeometry width="50" height="50" relative="1" as="geometry">
            <mxPoint x="210" y="400" as="sourcePoint" />
            <mxPoint x="240" y="400" as="targetPoint" />
          </mxGeometry>
        </mxCell>
        <mxCell id="Puvfrj2y3iIm_lqFW4YS-13" value="" style="endArrow=none;html=1;rounded=0;fontColor=#FF0000;fillColor=#f8cecc;strokeColor=#b85450;strokeWidth=2;" edge="1" parent="1">
          <mxGeometry width="50" height="50" relative="1" as="geometry">
            <mxPoint x="240" y="480" as="sourcePoint" />
            <mxPoint x="300" y="480" as="targetPoint" />
          </mxGeometry>
        </mxCell>
        <mxCell id="Puvfrj2y3iIm_lqFW4YS-14" value="" style="endArrow=none;html=1;rounded=0;fontColor=#FF0000;fillColor=#f8cecc;strokeColor=#b85450;strokeWidth=2;" edge="1" parent="1">
          <mxGeometry width="50" height="50" relative="1" as="geometry">
            <mxPoint x="300" y="400" as="sourcePoint" />
            <mxPoint x="330" y="400" as="targetPoint" />
          </mxGeometry>
        </mxCell>
        <mxCell id="Puvfrj2y3iIm_lqFW4YS-15" value="" style="endArrow=none;html=1;rounded=0;fontColor=#FF0000;fillColor=#f8cecc;strokeColor=#b85450;strokeWidth=2;" edge="1" parent="1">
          <mxGeometry width="50" height="50" relative="1" as="geometry">
            <mxPoint x="330" y="480" as="sourcePoint" />
            <mxPoint x="380" y="480" as="targetPoint" />
          </mxGeometry>
        </mxCell>
        <mxCell id="Puvfrj2y3iIm_lqFW4YS-17" value="" style="endArrow=none;html=1;rounded=0;fontColor=#FF0000;fillColor=#f8cecc;strokeColor=#b85450;strokeWidth=2;" edge="1" parent="1">
          <mxGeometry width="50" height="50" relative="1" as="geometry">
            <mxPoint x="380" y="360" as="sourcePoint" />
            <mxPoint x="450" y="360" as="targetPoint" />
          </mxGeometry>
        </mxCell>
        <mxCell id="Puvfrj2y3iIm_lqFW4YS-18" value="" style="endArrow=none;html=1;rounded=0;fontColor=#FF0000;fillColor=#f8cecc;strokeColor=#b85450;strokeWidth=2;" edge="1" parent="1">
          <mxGeometry width="50" height="50" relative="1" as="geometry">
            <mxPoint x="450" y="440" as="sourcePoint" />
            <mxPoint x="540" y="440" as="targetPoint" />
          </mxGeometry>
        </mxCell>
        <mxCell id="Puvfrj2y3iIm_lqFW4YS-19" value="" style="endArrow=none;html=1;rounded=0;fontColor=#FF0000;fillColor=#f8cecc;strokeColor=#b85450;strokeWidth=2;" edge="1" parent="1">
          <mxGeometry width="50" height="50" relative="1" as="geometry">
            <mxPoint x="540" y="360" as="sourcePoint" />
            <mxPoint x="690" y="360" as="targetPoint" />
          </mxGeometry>
        </mxCell>
        <mxCell id="Puvfrj2y3iIm_lqFW4YS-20" value="" style="endArrow=none;html=1;rounded=0;fontColor=#FF0000;fillColor=#f8cecc;strokeColor=#b85450;strokeWidth=2;entryX=0.833;entryY=0.333;entryDx=0;entryDy=0;entryPerimeter=0;" edge="1" parent="1" target="Puvfrj2y3iIm_lqFW4YS-9">
          <mxGeometry width="50" height="50" relative="1" as="geometry">
            <mxPoint x="210" y="400" as="sourcePoint" />
            <mxPoint x="280" y="520" as="targetPoint" />
          </mxGeometry>
        </mxCell>
        <mxCell id="Puvfrj2y3iIm_lqFW4YS-21" value="" style="endArrow=none;html=1;rounded=0;fontColor=#FF0000;fillColor=#f8cecc;strokeColor=#b85450;strokeWidth=2;entryX=0.833;entryY=0.333;entryDx=0;entryDy=0;entryPerimeter=0;" edge="1" parent="1">
          <mxGeometry width="50" height="50" relative="1" as="geometry">
            <mxPoint x="240" y="400" as="sourcePoint" />
            <mxPoint x="240" y="480" as="targetPoint" />
          </mxGeometry>
        </mxCell>
        <mxCell id="Puvfrj2y3iIm_lqFW4YS-22" value="" style="endArrow=none;html=1;rounded=0;fontColor=#FF0000;fillColor=#f8cecc;strokeColor=#b85450;strokeWidth=2;entryX=0.833;entryY=0.333;entryDx=0;entryDy=0;entryPerimeter=0;" edge="1" parent="1">
          <mxGeometry width="50" height="50" relative="1" as="geometry">
            <mxPoint x="300" y="400" as="sourcePoint" />
            <mxPoint x="300" y="480" as="targetPoint" />
          </mxGeometry>
        </mxCell>
        <mxCell id="Puvfrj2y3iIm_lqFW4YS-23" value="" style="endArrow=none;html=1;rounded=0;fontColor=#FF0000;fillColor=#f8cecc;strokeColor=#b85450;strokeWidth=2;entryX=0.833;entryY=0.333;entryDx=0;entryDy=0;entryPerimeter=0;" edge="1" parent="1">
          <mxGeometry width="50" height="50" relative="1" as="geometry">
            <mxPoint x="330" y="400" as="sourcePoint" />
            <mxPoint x="330" y="480" as="targetPoint" />
          </mxGeometry>
        </mxCell>
        <mxCell id="Puvfrj2y3iIm_lqFW4YS-24" value="" style="endArrow=none;html=1;rounded=0;fontColor=#FF0000;fillColor=#f8cecc;strokeColor=#b85450;strokeWidth=2;entryX=0.833;entryY=0.333;entryDx=0;entryDy=0;entryPerimeter=0;" edge="1" parent="1">
          <mxGeometry width="50" height="50" relative="1" as="geometry">
            <mxPoint x="380" y="360" as="sourcePoint" />
            <mxPoint x="380" y="480" as="targetPoint" />
          </mxGeometry>
        </mxCell>
        <mxCell id="Puvfrj2y3iIm_lqFW4YS-25" value="" style="endArrow=none;html=1;rounded=0;fontColor=#FF0000;fillColor=#f8cecc;strokeColor=#b85450;strokeWidth=2;" edge="1" parent="1">
          <mxGeometry width="50" height="50" relative="1" as="geometry">
            <mxPoint x="450" y="360" as="sourcePoint" />
            <mxPoint x="450" y="440" as="targetPoint" />
          </mxGeometry>
        </mxCell>
        <mxCell id="Puvfrj2y3iIm_lqFW4YS-26" value="" style="endArrow=none;html=1;rounded=0;fontColor=#FF0000;fillColor=#f8cecc;strokeColor=#b85450;strokeWidth=2;" edge="1" parent="1">
          <mxGeometry width="50" height="50" relative="1" as="geometry">
            <mxPoint x="540" y="360" as="sourcePoint" />
            <mxPoint x="540" y="440" as="targetPoint" />
          </mxGeometry>
        </mxCell>
        <mxCell id="Puvfrj2y3iIm_lqFW4YS-27" value="&lt;font style=&quot;font-size: 5px;&quot;&gt;0.2 us&lt;/font&gt;" style="text;html=1;strokeColor=none;fillColor=none;align=center;verticalAlign=middle;whiteSpace=wrap;rounded=0;" vertex="1" parent="1">
          <mxGeometry x="200" y="480" width="20" height="10" as="geometry" />
        </mxCell>
        <mxCell id="Puvfrj2y3iIm_lqFW4YS-28" value="&lt;font style=&quot;font-size: 5px;&quot;&gt;0.5 us&lt;/font&gt;" style="text;html=1;strokeColor=none;fillColor=none;align=center;verticalAlign=middle;whiteSpace=wrap;rounded=0;" vertex="1" parent="1">
          <mxGeometry x="220" y="390" width="20" height="10" as="geometry" />
        </mxCell>
        <mxCell id="Puvfrj2y3iIm_lqFW4YS-29" value="&lt;font style=&quot;font-size: 5px;&quot;&gt;1 + 0.2 us&lt;/font&gt;" style="text;html=1;strokeColor=none;fillColor=none;align=center;verticalAlign=middle;whiteSpace=wrap;rounded=0;" vertex="1" parent="1">
          <mxGeometry x="270" y="480" width="30" height="10" as="geometry" />
        </mxCell>
        <mxCell id="Puvfrj2y3iIm_lqFW4YS-30" value="&lt;font style=&quot;font-size: 5px;&quot;&gt;0.5 us&lt;/font&gt;" style="text;html=1;strokeColor=none;fillColor=none;align=center;verticalAlign=middle;whiteSpace=wrap;rounded=0;" vertex="1" parent="1">
          <mxGeometry x="310" y="390" width="20" height="10" as="geometry" />
        </mxCell>
        <mxCell id="Puvfrj2y3iIm_lqFW4YS-32" value="&lt;font style=&quot;font-size: 5px;&quot;&gt;1.0 us&lt;/font&gt;" style="text;html=1;strokeColor=none;fillColor=none;align=center;verticalAlign=middle;whiteSpace=wrap;rounded=0;" vertex="1" parent="1">
          <mxGeometry x="360" y="480" width="20" height="10" as="geometry" />
        </mxCell>
        <mxCell id="Puvfrj2y3iIm_lqFW4YS-33" value="&lt;font style=&quot;font-size: 5px;&quot;&gt;1.5 us&lt;/font&gt;" style="text;html=1;strokeColor=none;fillColor=none;align=center;verticalAlign=middle;whiteSpace=wrap;rounded=0;" vertex="1" parent="1">
          <mxGeometry x="430" y="350" width="20" height="10" as="geometry" />
        </mxCell>
        <mxCell id="Puvfrj2y3iIm_lqFW4YS-34" value="&lt;font style=&quot;font-size: 5px;&quot;&gt;2.0 us&lt;/font&gt;" style="text;html=1;strokeColor=none;fillColor=none;align=center;verticalAlign=middle;whiteSpace=wrap;rounded=0;" vertex="1" parent="1">
          <mxGeometry x="520" y="440" width="20" height="10" as="geometry" />
        </mxCell>
        <mxCell id="Puvfrj2y3iIm_lqFW4YS-35" value="&lt;font style=&quot;font-size: 5px;&quot;&gt;3.0 us&lt;/font&gt;" style="text;html=1;strokeColor=none;fillColor=none;align=center;verticalAlign=middle;whiteSpace=wrap;rounded=0;" vertex="1" parent="1">
          <mxGeometry x="670" y="350" width="20" height="10" as="geometry" />
        </mxCell>
      </root>
    </mxGraphModel>
  </diagram>
</mxfile>
